<svg width="52" height="52" viewBox="0 0 52 52" fill="none" xmlns="http://www.w3.org/2000/svg">
<rect x="0.5" y="0.5" width="51" height="51" rx="25.5" fill="#1A1A1A"/>
<rect x="0.5" y="0.5" width="51" height="51" rx="25.5" stroke="#1F1F1F"/>
<path fill-rule="evenodd" clip-rule="evenodd" d="M15.5 19.875C15.5 19.3918 15.8918 19 16.375 19H35.625C36.1082 19 36.5 19.3918 36.5 19.875C36.5 20.3582 36.1082 20.75 35.625 20.75H16.375C15.8918 20.75 15.5 20.3582 15.5 19.875ZM15.5 26C15.5 25.5168 15.8918 25.125 16.375 25.125H35.625C36.1082 25.125 36.5 25.5168 36.5 26C36.5 26.4832 36.1082 26.875 35.625 26.875H16.375C15.8918 26.875 15.5 26.4832 15.5 26ZM25.125 32.125C25.125 31.6418 25.5168 31.25 26 31.25H35.625C36.1082 31.25 36.5 31.6418 36.5 32.125C36.5 32.6082 36.1082 33 35.625 33H26C25.5168 33 25.125 32.6082 25.125 32.125Z" fill="white"/>
</svg>
