<svg width="28" height="28" viewBox="0 0 28 28" fill="none" xmlns="http://www.w3.org/2000/svg">
<path fill-rule="evenodd" clip-rule="evenodd" d="M6.22229 14C6.22229 13.3235 6.75507 12.775 7.41229 12.775H17.9445L14.5208 9.5747C14.0471 9.10577 14.0323 8.3303 14.4878 7.84262C14.9434 7.35494 15.6967 7.33973 16.1704 7.80866L21.7238 13.117C21.9571 13.3479 22.089 13.6668 22.089 14C22.089 14.3332 21.9571 14.6521 21.7238 14.883L16.1704 20.1914C15.6967 20.6603 14.9434 20.6451 14.4878 20.1574C14.0323 19.6697 14.0471 18.8942 14.5208 18.4253L17.9445 15.225H7.41229C6.75507 15.225 6.22229 14.6766 6.22229 14Z" fill="white"/>
</svg>
